# xmcd
#
# Track frame offsets: 
#        150
#        14659
#        24923
#        37120
#        50242
#        62377
#        73793
#        85271
#        95002
#        107411
#        120047
#        130091
#
# Disc length: 1866 seconds
#
# Revision: 0
# Processed by: cddbd v1.5.2PL0 Copyright (c) Steve Scherf et al.
# Submitted via: ExactAudioCopy v1.3
#
DISCID=9907480c
DTITLE=Hank Williams Jr. - Country Shadows
DYEAR=1966
DGENRE=Country
TTITLE0=Standing In The Shadows
TTITLE1=Almost Nearly But Not Quite Plumb
TTITLE2=Guess What, That's Right, She's Gone
TTITLE3=Is It That Much Fun To Hurt Someone
TTITLE4=I Can Take Anything
TTITLE5=Ten Ton Load
TTITLE6=Endless Sleep
TTITLE7=You're Runnin' My Life
TTITLE8=Pecos Jail
TTITLE9=In The First Place
TTITLE10=I Went To All That Trouble For Nothin'
TTITLE11=Going Steady With The Blues
EXTD=
EXTT0=
EXTT1=
EXTT2=
EXTT3=
EXTT4=
EXTT5=
EXTT6=
EXTT7=
EXTT8=
EXTT9=
EXTT10=
EXTT11=
PLAYORDER=
